# xmcd CD database file
#
# Track frame offsets:
#	187
#	30660
#	39212
#	58630
#	80160
#	101292
#	123440
#
# Disc length: 2059 seconds
#
# Revision: 0
# Processed by: cddbd v1.4PL0 Copyright (c) Steve Scherf et al.
# Submitted via: CDex 1.50
#
DISCID=4f080907
DTITLE=Kenny Burrell With Coleman Hawkins - Bluesy Burrell
DYEAR=1962
DGENRE=Jazz
TTITLE0=Tres Palabras
TTITLE1=No More
TTITLE2=Guilty
TTITLE3=Montono Blues
TTITLE4=I Thought About You
TTITLE5=Out Of This World
TTITLE6=It's Getting Dark
EXTD=YEAR: 1962
EXTT0=
EXTT1=
EXTT2=
EXTT3=
EXTT4=
EXTT5=
EXTT6=
PLAYORDER=
